<svg xmlns="http://www.w3.org/2000/svg" width="100" height="15" viewBox="0 0 100 15" fill="none">
  <path d="M15.0497 5.46361C14.9503 5.15808 14.6793 4.94176 14.36 4.91287L10.0042 4.51742L8.28275 0.4872C8.15565 0.191104 7.86647 0 7.54458 0C7.2227 0 6.93339 0.191104 6.80711 0.4872L5.08567 4.51742L0.729197 4.91287C0.409846 4.94234 0.139423 5.15865 0.0394963 5.46361C-0.0598547 5.76915 0.0318981 6.10427 0.273426 6.3161L3.56605 9.20326L2.59522 13.4792C2.52419 13.7936 2.64622 14.1187 2.90709 14.3072C3.04731 14.4091 3.21205 14.46 3.37737 14.46C3.51943 14.46 3.6616 14.4222 3.78859 14.3463L7.54458 12.1004L11.2999 14.3463C11.5754 14.5109 11.9218 14.4958 12.1821 14.3072C12.4429 14.1187 12.565 13.7936 12.4939 13.4792L11.5231 9.20326L14.8157 6.3161C15.0572 6.10427 15.149 5.76984 15.0497 5.46361Z" fill="#F9E492"/>
  <path d="M36.1825 5.46361C36.0831 5.15808 35.8121 4.94176 35.4928 4.91287L31.137 4.51742L29.4156 0.4872C29.2885 0.191104 28.9993 0 28.6774 0C28.3555 0 28.0662 0.191104 27.9399 0.4872L26.2185 4.51742L21.862 4.91287C21.5427 4.94234 21.2722 5.15865 21.1723 5.46361C21.073 5.76915 21.1647 6.10427 21.4062 6.3161L24.6989 9.20326L23.728 13.4792C23.657 13.7936 23.779 14.1187 24.0399 14.3072C24.1801 14.4091 24.3449 14.46 24.5102 14.46C24.6522 14.46 24.7944 14.4222 24.9214 14.3463L28.6774 12.1004L32.4327 14.3463C32.7082 14.5109 33.0546 14.4958 33.3149 14.3072C33.5758 14.1187 33.6978 13.7936 33.6268 13.4792L32.6559 9.20326L35.9486 6.3161C36.19 6.10427 36.2818 5.76984 36.1825 5.46361Z" fill="#F9E492"/>
  <path d="M57.3153 5.46361C57.2159 5.15808 56.9449 4.94176 56.6256 4.91287L52.2698 4.51742L50.5484 0.4872C50.4213 0.191104 50.1321 0 49.8102 0C49.4883 0 49.199 0.191104 49.0727 0.4872L47.3513 4.51742L42.9948 4.91287C42.6755 4.94234 42.405 5.15865 42.3051 5.46361C42.2058 5.76915 42.2975 6.10427 42.5391 6.3161L45.8317 9.20326L44.8608 13.4792C44.7898 13.7936 44.9118 14.1187 45.1727 14.3072C45.3129 14.4091 45.4777 14.46 45.643 14.46C45.7851 14.46 45.9272 14.4222 46.0542 14.3463L49.8102 12.1004L53.5655 14.3463C53.841 14.5109 54.1874 14.4958 54.4477 14.3072C54.7086 14.1187 54.8306 13.7936 54.7596 13.4792L53.7887 9.20326L57.0814 6.3161C57.3228 6.10427 57.4146 5.76984 57.3153 5.46361Z" fill="#F9E492"/>
  <path d="M78.4481 5.46361C78.3488 5.15808 78.0778 4.94176 77.7584 4.91287L73.4026 4.51742L71.6812 0.4872C71.5541 0.191104 71.2649 0 70.943 0C70.6211 0 70.3318 0.191104 70.2055 0.4872L68.4841 4.51742L64.1276 4.91287C63.8083 4.94234 63.5379 5.15865 63.4379 5.46361C63.3386 5.76915 63.4303 6.10427 63.6719 6.3161L66.9645 9.20326L65.9937 13.4792C65.9226 13.7936 66.0447 14.1187 66.3055 14.3072C66.4457 14.4091 66.6105 14.46 66.7758 14.46C66.9179 14.46 67.06 14.4222 67.187 14.3463L70.943 12.1004L74.6983 14.3463C74.9738 14.5109 75.3202 14.4958 75.5805 14.3072C75.8414 14.1187 75.9634 13.7936 75.8924 13.4792L74.9215 9.20326L78.2142 6.3161C78.4556 6.10427 78.5475 5.76984 78.4481 5.46361Z" fill="#F9E492"/>
  <path d="M99.5809 5.46361C99.4816 5.15808 99.2106 4.94176 98.8912 4.91287L94.5354 4.51742L92.814 0.4872C92.6869 0.191104 92.3977 0 92.0758 0C91.7539 0 91.4646 0.191104 91.3384 0.4872L89.6169 4.51742L85.2604 4.91287C84.9411 4.94234 84.6707 5.15865 84.5707 5.46361C84.4714 5.76915 84.5631 6.10427 84.8047 6.3161L88.0973 9.20326L87.1265 13.4792C87.0554 13.7936 87.1775 14.1187 87.4383 14.3072C87.5786 14.4091 87.7433 14.46 87.9086 14.46C88.0507 14.46 88.1929 14.4222 88.3198 14.3463L92.0758 12.1004L95.8311 14.3463C96.1066 14.5109 96.453 14.4958 96.7133 14.3072C96.9742 14.1187 97.0962 13.7936 97.0252 13.4792L96.0544 9.20326L99.347 6.3161C99.5884 6.10427 99.6803 5.76984 99.5809 5.46361Z" fill="#F9E492"/>
</svg>